HIERARCHY
ROOT Hips
{
	OFFSET 0.000000 0.000000 0.000000
	CHANNELS 6 Xposition Yposition Zposition Zrotation Yrotation Xrotation 
	JOINT LHipJoint
	{
		OFFSET 0.000000 0.000000 0.000000
		CHANNELS 3 Zrotation Yrotation Xrotation
		JOINT LeftUpLeg
		{
			OFFSET 1.363060 -1.794630 0.839290
			CHANNELS 3 Zrotation Yrotation Xrotation
			JOINT LeftLeg
			{
				OFFSET 2.448110 -6.726130 0.000000
				CHANNELS 3 Zrotation Yrotation Xrotation
				JOINT LeftFoot
				{
					OFFSET 2.562200 -7.039590 0.000000
					CHANNELS 3 Zrotation Yrotation Xrotation
					JOINT LeftToeBase
					{
						OFFSET 0.157640 -0.433110 2.322550
						CHANNELS 3 Zrotation Yrotation Xrotation
						End Site
						{
							OFFSET 0.000000 0.000000 0.000000
						}
					}
				}
			}
		}
	}
	JOINT RHipJoint
	{
		OFFSET 0.000000 0.000000 0.000000
		CHANNELS 3 Zrotation Yrotation Xrotation
		JOINT RightUpLeg
		{
			OFFSET -1.305520 -1.794630 0.839290
			CHANNELS 3 Zrotation Yrotation Xrotation
			JOINT RightLeg
			{
				OFFSET -2.542530 -6.985550 0.000000
				CHANNELS 3 Zrotation Yrotation Xrotation
				JOINT RightFoot
				{
					OFFSET -2.568260 -7.056230 0.000000
					CHANNELS 3 Zrotation Yrotation Xrotation
					JOINT RightToeBase
					{
						OFFSET -0.164730 -0.452590 2.363150
						CHANNELS 3 Zrotation Yrotation Xrotation
						End Site
						{
							OFFSET 0.000000 0.000000 0.000000
						}
					}
				}
			}
		}
	}
	JOINT LowerBack
	{
		OFFSET 0.000000 0.000000 0.000000
		CHANNELS 3 Zrotation Yrotation Xrotation
		JOINT Spine
		{
			OFFSET 0.028270 2.035590 -0.193380
			CHANNELS 3 Zrotation Yrotation Xrotation
			JOINT Spine1
			{
				OFFSET 0.056720 2.048850 -0.042750
				CHANNELS 3 Zrotation Yrotation Xrotation
				JOINT Neck
				{
					OFFSET 0.000000 0.000000 0.000000
					CHANNELS 3 Zrotation Yrotation Xrotation
					JOINT Neck1
					{
						OFFSET -0.054170 1.746240 0.172020
						CHANNELS 3 Zrotation Yrotation Xrotation
						JOINT Head
						{
							OFFSET 0.104070 1.761360 -0.123970
							CHANNELS 3 Zrotation Yrotation Xrotation
							End Site
							{
								OFFSET 0.000000 0.000000 0.000000
							}
						}
					}
				}
				JOINT LeftShoulder
				{
					OFFSET 0.000000 0.000000 0.000000
					CHANNELS 3 Zrotation Yrotation Xrotation
					JOINT LeftArm
					{
						OFFSET 3.362410 1.200890 -0.311210
						CHANNELS 3 Zrotation Yrotation Xrotation
						JOINT LeftForeArm
						{
							OFFSET 4.983000 -0.000000 -0.000000
							CHANNELS 3 Zrotation Yrotation Xrotation
							JOINT LeftHand
							{
								OFFSET 3.483560 -0.000000 -0.000000
								CHANNELS 3 Zrotation Yrotation Xrotation
								JOINT LeftFingerBase
								{
									OFFSET 0.000000 0.000000 0.000000
									CHANNELS 3 Zrotation Yrotation Xrotation
									JOINT LeftHandIndex1
									{
										OFFSET 0.715260 -0.000000 -0.000000
										CHANNELS 3 Zrotation Yrotation Xrotation
										End Site
										{
											OFFSET 0.000000 0.000000 0.000000
										}
									}
								}
								JOINT LThumb
								{
									OFFSET 0.000000 0.000000 0.000000
									CHANNELS 3 Zrotation Yrotation Xrotation
									End Site
									{
										OFFSET 0.000000 0.000000 0.000000
									}
								}
							}
						}
					}
				}
				JOINT RightShoulder
				{
					OFFSET 0.000000 0.000000 0.000000
					CHANNELS 3 Zrotation Yrotation Xrotation
					JOINT RightArm
					{
						OFFSET -3.136600 1.374050 -0.404650
						CHANNELS 3 Zrotation Yrotation Xrotation
						JOINT RightForeArm
						{
							OFFSET -5.241900 -0.000000 -0.000000
							CHANNELS 3 Zrotation Yrotation Xrotation
							JOINT RightHand
							{
								OFFSET -3.444170 -0.000000 -0.000000
								CHANNELS 3 Zrotation Yrotation Xrotation
								JOINT RightFingerBase
								{
									OFFSET 0.000000 0.000000 0.000000
									CHANNELS 3 Zrotation Yrotation Xrotation
									JOINT RightHandIndex1
									{
										OFFSET -0.622530 -0.000000 -0.000000
										CHANNELS 3 Zrotation Yrotation Xrotation
										End Site
										{
											OFFSET 0.000000 0.000000 0.000000
										}
									}
								}
								JOINT RThumb
								{
									OFFSET 0.000000 0.000000 0.000000
									CHANNELS 3 Zrotation Yrotation Xrotation
									End Site
									{
										OFFSET 0.000000 0.000000 0.000000
									}
								}
							}
						}
					}
				}
			}
		}
	}
}
MOTION
Frames: 4
Frame Time: 0.008333
-12.238599 17.521671 5.383080 -15.986054 74.214598 -12.670057 -0.651837 1.994062 2.566788 -6.558950 -12.644802 -17.618522 10.716969 16.976466 60.798867 6.472107 -10.781578 -47.615249 1.721500 -8.260100 -23.506800 -2.810087 -2.521517 2.806582 18.303935 10.667736 -26.003223 -11.477822 -16.944415 62.759332 -0.115704 25.531807 -20.705920 -0.079000 1.812600 -4.988200 0.544439 -4.252283 5.826208 -4.974027 -5.907358 12.622591 2.984550 -2.736092 -9.628408 -6.214504 -10.315157 -21.360619 8.186289 -12.272728 35.065111 0.022900 -3.374500 16.310600 2.264511 -7.262062 0.310706 -88.758360 -13.407946 62.529629 88.149076 -56.874947 -64.759130 1.802502 -1.708731 -28.671137 40.194898 -1.590317 1.238600 -7.125000 0.000000 0.000000 10.351400 31.816600 -3.387200 1.447523 11.090239 1.464283 76.617494 -11.039432 34.548324 -50.284104 45.266543 -25.449420 -0.032252 0.203588 -11.210056 -40.416383 6.089554 -4.934300 7.125000 0.000000 0.000000 -10.008900 -22.392200 -5.523800 
-12.232437 17.513329 5.777329 -16.838033 74.875466 -13.305870 -0.652735 1.978121 2.559555 -6.392986 -13.336979 -17.624641 10.733641 16.966543 60.845889 6.626647 -10.744832 -48.214841 1.757200 -8.340800 -23.754200 -2.833758 -2.517583 2.804194 18.187539 11.558360 -25.340165 -11.325732 -16.872962 62.228866 0.312547 26.510843 -18.650739 -0.038500 1.266100 -3.481200 0.446101 -4.270881 5.721181 -5.249495 -5.945868 12.563868 3.119186 -2.748358 -9.531311 -6.166035 -10.330981 -21.255475 8.158362 -12.311104 35.065474 0.007300 -3.391200 16.296400 2.296368 -7.222121 0.331751 -88.130553 -12.362725 61.835961 88.150375 -56.832453 -64.668688 1.801012 -1.671249 -28.654083 39.987221 -1.131716 1.564200 -7.125000 0.000000 0.000000 10.220900 32.336400 -3.213200 1.491526 11.035830 1.430442 77.289487 -11.457342 34.283048 -49.866359 45.075439 -25.114376 -0.032034 0.195441 -10.673902 -40.314751 6.335392 -5.131300 7.125000 0.000000 0.000000 -9.893900 -22.073700 -5.531500 
-12.225233 17.497972 6.168545 -17.659443 75.512812 -13.979311 -0.659187 1.970181 2.568739 -6.271157 -14.212847 -17.462797 10.735710 16.947869 60.853487 6.740332 -11.155390 -48.646254 1.698800 -8.208400 -23.348900 -2.858594 -2.521117 2.802386 18.254435 12.024161 -24.652017 -11.133050 -16.771301 61.555321 0.611732 27.292605 -17.299041 -0.030900 1.134900 -3.120000 0.382404 -4.293877 5.602325 -5.594464 -5.974279 12.674982 3.228705 -2.767626 -9.407941 -6.135394 -10.322700 -21.225808 8.222389 -12.320884 34.933713 0.028700 -3.392800 16.254200 2.351850 -7.193568 0.349435 -87.470701 -11.436131 61.126835 88.207374 -56.792440 -64.583234 1.809663 -1.609124 -28.863325 40.150836 -0.407798 2.128100 -7.125000 0.000000 0.000000 10.410900 33.202100 -3.053500 1.529319 10.992541 1.384015 77.999878 -11.633321 33.942548 -49.230216 44.784376 -24.590515 -0.029186 0.183492 -10.326520 -40.129758 6.659499 -5.381300 7.125000 0.000000 0.000000 -9.708900 -21.657800 -5.518300 
-12.216606 17.490768 6.557106 -18.227586 76.127865 -14.392514 -0.669523 1.955431 2.564899 -6.140126 -14.732631 -17.405345 10.725628 16.933020 60.833345 6.827528 -11.712940 -48.978689 1.669300 -8.140300 -23.141000 -2.888140 -2.515413 2.775731 18.197900 12.484569 -23.885973 -10.909905 -16.654374 60.793528 0.945619 28.496331 -16.154663 -0.008900 0.607600 -1.669800 0.729662 -4.220378 5.619752 -6.630762 -5.793991 12.460310 3.219554 -2.691852 -9.378699 -5.694270 -10.367516 -20.736744 8.184736 -12.565898 34.702310 -0.085700 -3.468600 16.037600 2.469012 -7.164524 0.391983 -86.601168 -10.230439 60.856045 88.166794 -56.739027 -64.460730 1.796807 -1.569735 -28.954252 40.312411 -0.353886 2.148700 -7.125000 0.000000 0.000000 10.538300 33.219800 -3.087400 1.645381 10.907491 1.320729 79.295345 -12.081417 33.179871 -48.402331 44.398526 -23.921907 -0.017757 0.173187 -9.644658 -40.300284 6.722774 -5.480000 7.125000 0.000000 0.000000 -9.822900 -21.537900 -5.612100 
